<svg xmlns="http://www.w3.org/2000/svg" viewBox="13.5 16 25.5 24" enable-background="new 13.5 16 25.5 24"><path fill="#6B6B6B" d="M36.3 22.4c-.1-.2-.3-.3-.5-.3h-14.7l-.6-1.7c-.1-.2-.2-.3-.4-.4l-3-1.2c-.3-.1-.7 0-.8.4-.1.3 0 .7.4.8l2.7 1.1 3.4 9.7c-.1.1-.3.2-.3.3l-1 2.7c-.1.2 0 .3.1.5.1.1.3.2.4.2h.5c-.3.3-.5.8-.5 1.3 0 1.1.9 1.9 1.9 1.9s1.9-.9 1.9-1.9c0-.5-.2-1-.5-1.3h4.2c-.3.3-.5.8-.5 1.3 0 1.1.9 1.9 1.9 1.9s1.9-.9 1.9-1.9c0-.5-.2-1-.5-1.3h.6c.3 0 .5-.2.5-.5s-.2-.5-.5-.5h-10.2l.6-1.7c.1 0 .2.1.2.1h9.5c.3 0 .5-.2.6-.4l2.7-8.4c.2-.4.1-.6 0-.7zm-12.4 14.3c-.5 0-.9-.4-.9-.9s.4-.9.9-.9.9.4.9.9-.4.9-.9.9zm7.1 0c-.5 0-.9-.4-.9-.9s.4-.9.9-.9.9.4.9.9-.4.9-.9.9zm3.4-11.9h-3.3v-1.5h3.8l-.5 1.5zm-.9 3h-2.4v-1.7h2.9l-.5 1.7zm-6.7 0v-1.7h3v1.7h-3zm3 1.3v1.4h-3v-1.4h3zm-7.3-3h3v1.7h-2.4l-.6-1.7zm4.3-1.3v-1.5h3v1.5h-3zm-1.2-1.4v1.5h-3.5l-.5-1.5h4zm-2 5.7h2v1.4h-1.5l-.5-1.4zm7.5 1.4v-1.4h1.9l-.4 1.4h-1.5z"/><circle fill="#F2A054" stroke="#888788" stroke-width=".351" stroke-miterlimit="10" cx="32.3" cy="22.4" r="4"/><text transform="translate(31.323 24.809)" fill="#fff" font-family="'OstrichSans-Black'" font-size="6.888">2</text></svg>