<?xml version="1.0" encoding="utf-8"?>
<!-- Generator: Adobe Illustrator 17.1.0, SVG Export Plug-In . SVG Version: 6.00 Build 0)  -->
<!DOCTYPE svg PUBLIC "-//W3C//DTD SVG 1.1//EN" "http://www.w3.org/Graphics/SVG/1.1/DTD/svg11.dtd">
<svg version="1.1" id="Layer_1" xmlns="http://www.w3.org/2000/svg" xmlns:xlink="http://www.w3.org/1999/xlink" x="0px" y="0px"
	 viewBox="0 0 55.132 55.812" enable-background="new 0 0 55.132 55.812" xml:space="preserve">
<g display="none">
	<g display="inline">
		<polygon fill="#35A56B" points="27.564,33.17 23.054,30.103 15.337,37.822 39.787,37.822 32.048,30.082 		"/>
		<polygon fill="#35A56B" points="41.16,36.449 41.16,23.81 33.674,28.962 		"/>
		<polygon fill="#35A56B" points="13.962,23.92 13.962,36.449 21.417,28.991 		"/>
		<polygon fill="#35A56B" points="13.962,21.575 27.558,30.815 41.119,21.478 41.16,21.538 41.16,18.394 13.962,18.394 		"/>
		<path fill="#35A56B" d="M27.56,0.904c-15.024,0-27.203,12.179-27.203,27.203s12.18,27.204,27.204,27.204
			c15.025,0,27.204-12.18,27.204-27.204C54.765,13.083,42.585,0.904,27.56,0.904z M43.103,37.822c0,1.072-0.872,1.942-1.943,1.942
			H13.962c-1.073,0-1.944-0.87-1.944-1.942V18.394c0-1.072,0.871-1.943,1.944-1.943H41.16c1.071,0,1.943,0.871,1.943,1.943V37.822z"
			/>
	</g>
</g>
<g>
	<g>
		<polygon fill="#606362" points="27.569,33.176 23.058,30.108 15.339,37.829 39.794,37.829 32.054,30.087 		"/>
		<polygon fill="#606362" points="41.167,36.456 41.167,23.815 33.68,28.967 		"/>
		<polygon fill="#606362" points="13.965,23.924 13.965,36.456 21.421,28.996 		"/>
		<polygon fill="#606362" points="13.965,21.579 27.563,30.821 41.126,21.482 41.167,21.541 41.167,18.397 13.965,18.397 		"/>
		<path fill="#606362" d="M27.565,0.904c-15.027,0-27.208,12.181-27.208,27.208s12.182,27.209,27.209,27.209
			c15.028,0,27.209-12.182,27.209-27.209C54.775,13.085,42.593,0.904,27.565,0.904z M43.111,37.829c0,1.072-0.873,1.943-1.943,1.943
			H13.965c-1.073,0-1.944-0.871-1.944-1.943V18.397c0-1.072,0.872-1.943,1.944-1.943h27.203c1.071,0,1.943,0.872,1.943,1.943V37.829
			z"/>
	</g>
</g>
<g>
	<path fill="#044D78" d="M182.708,47.307c-15.224,0-27.565,12.341-27.565,27.566s12.342,27.565,27.566,27.565
		s27.565-12.34,27.565-27.565S197.933,47.307,182.708,47.307z M189.238,66.355h-4.145c-0.491,0-1.037,0.644-1.037,1.506v2.993h5.181
		v4.266h-5.181v12.81h-4.893V75.12h-4.435v-4.266h4.435v-2.511c0-3.6,2.5-6.528,5.928-6.528h4.146L189.238,66.355L189.238,66.355z"
		/>
</g>
<g>
	<path fill="#606362" d="M182.999,107.338c-15.224,0-27.565,12.341-27.565,27.566c0,15.225,12.342,27.565,27.566,27.565
		s27.565-12.34,27.565-27.565C210.566,119.679,198.225,107.338,182.999,107.338z M189.529,126.386h-4.145
		c-0.491,0-1.037,0.644-1.037,1.506v2.993h5.181v4.266h-5.181v12.81h-4.893v-12.81h-4.435v-4.266h4.435v-2.511
		c0-3.6,2.5-6.528,5.928-6.528h4.146L189.529,126.386L189.529,126.386z"/>
</g>
<g>
	<path fill="#D77A27" d="M287.927,46.803c-15.212,0-27.541,12.331-27.541,27.542s12.329,27.541,27.541,27.541
		c15.21,0,27.542-12.33,27.542-27.541S303.138,46.803,287.927,46.803z M299.128,69.365c0.012,0.233,0.015,0.466,0.015,0.703
		c0,7.167-5.456,15.433-15.433,15.433c-3.063,0-5.914-0.898-8.313-2.438c0.423,0.051,0.854,0.077,1.293,0.077
		c2.542,0,4.88-0.867,6.738-2.323c-2.374-0.042-4.378-1.611-5.069-3.767c0.333,0.063,0.672,0.097,1.021,0.097
		c0.494,0,0.973-0.065,1.429-0.19c-2.481-0.498-4.352-2.689-4.352-5.319c0-0.023,0-0.045,0.001-0.068
		c0.731,0.407,1.568,0.65,2.457,0.679c-1.457-0.974-2.413-2.634-2.413-4.516c0-0.993,0.267-1.924,0.734-2.726
		c2.674,3.282,6.672,5.44,11.179,5.667c-0.093-0.397-0.14-0.812-0.14-1.237c0-2.995,2.429-5.423,5.424-5.423
		c1.561,0,2.97,0.658,3.959,1.713c1.236-0.244,2.397-0.694,3.445-1.317c-0.406,1.267-1.266,2.33-2.385,3
		c1.097-0.131,2.143-0.422,3.116-0.854C301.109,67.645,300.189,68.6,299.128,69.365z"/>
</g>
<g>
	<path fill="#606362" d="M287.927,115.654c-15.212,0-27.541,12.331-27.541,27.542s12.329,27.541,27.541,27.541
		c15.21,0,27.542-12.33,27.542-27.541S303.138,115.654,287.927,115.654z M299.128,138.216c0.012,0.233,0.015,0.466,0.015,0.703
		c0,7.167-5.456,15.433-15.433,15.433c-3.063,0-5.914-0.898-8.313-2.438c0.423,0.051,0.854,0.077,1.293,0.077
		c2.542,0,4.88-0.867,6.738-2.323c-2.374-0.042-4.378-1.611-5.069-3.767c0.333,0.063,0.672,0.097,1.021,0.097
		c0.494,0,0.973-0.065,1.429-0.19c-2.481-0.498-4.352-2.689-4.352-5.319c0-0.023,0-0.045,0.001-0.068
		c0.731,0.407,1.568,0.65,2.457,0.679c-1.457-0.974-2.413-2.634-2.413-4.516c0-0.993,0.267-1.924,0.734-2.726
		c2.674,3.282,6.672,5.44,11.179,5.667c-0.093-0.397-0.14-0.812-0.14-1.237c0-2.995,2.429-5.423,5.424-5.423
		c1.561,0,2.97,0.658,3.959,1.713c1.236-0.244,2.397-0.694,3.445-1.317c-0.406,1.267-1.266,2.33-2.385,3
		c1.097-0.131,2.143-0.422,3.116-0.854C301.109,136.496,300.189,137.451,299.128,138.216z"/>
</g>
</svg>
