<?xml version="1.0" encoding="utf-8"?>
<!-- Generator: Adobe Illustrator 17.1.0, SVG Export Plug-In . SVG Version: 6.00 Build 0)  -->
<!DOCTYPE svg PUBLIC "-//W3C//DTD SVG 1.1//EN" "http://www.w3.org/Graphics/SVG/1.1/DTD/svg11.dtd">
<svg version="1.1" id="Layer_1" xmlns="http://www.w3.org/2000/svg" xmlns:xlink="http://www.w3.org/1999/xlink" x="0px" y="0px"
	 viewBox="0 0 115 113.5" enable-background="new 0 0 115 113.5" xml:space="preserve">
<g>
	<g>
		<polygon fill="#35A56B" points="57.172,65.945 48.303,59.915 33.129,75.093 81.206,75.093 65.988,59.873 		"/>
		<polygon fill="#35A56B" points="83.906,72.393 83.906,47.54 69.186,57.671 		"/>
		<polygon fill="#35A56B" points="30.426,47.757 30.426,72.393 45.085,57.726 		"/>
		<polygon fill="#35A56B" points="30.426,43.146 57.16,61.315 83.825,42.955 83.906,43.073 83.906,36.889 30.426,36.889 		"/>
		<path fill="#35A56B" d="M57.164,2.5c-29.542,0-53.49,23.948-53.49,53.49s23.95,53.492,53.492,53.492
			c29.544,0,53.492-23.95,53.492-53.492S86.708,2.5,57.164,2.5z M87.726,75.093c0,2.108-1.715,3.819-3.821,3.819h-53.48
			c-2.11,0-3.823-1.711-3.823-3.819V36.889c0-2.108,1.713-3.821,3.823-3.821h53.48c2.106,0,3.821,1.713,3.821,3.821V75.093z"/>
	</g>
</g>
<g display="none">
	<g display="inline">
		<polygon fill="#606362" points="57.181,65.957 48.311,59.924 33.133,75.106 81.22,75.106 66,59.883 		"/>
		<polygon fill="#606362" points="83.919,72.407 83.919,47.55 69.198,57.681 		"/>
		<polygon fill="#606362" points="30.432,47.765 30.432,72.407 45.092,57.738 		"/>
		<polygon fill="#606362" points="30.432,43.154 57.17,61.326 83.839,42.963 83.919,43.079 83.919,36.897 30.432,36.897 		"/>
		<path fill="#606362" d="M57.173,2.5c-29.548,0-53.5,23.952-53.5,53.5s23.954,53.502,53.502,53.502
			c29.55,0,53.502-23.954,53.502-53.502S86.723,2.5,57.173,2.5z M87.742,75.106c0,2.108-1.717,3.821-3.821,3.821h-53.49
			c-2.11,0-3.823-1.713-3.823-3.821V36.897c0-2.108,1.715-3.821,3.823-3.821h53.49c2.106,0,3.821,1.715,3.821,3.821V75.106z"/>
	</g>
</g>
<g>
	<path fill="#044D78" d="M240.03,122.51c-29.935,0-54.202,24.266-54.202,54.204s24.268,54.202,54.204,54.202
		s54.202-24.264,54.202-54.202C294.233,146.777,269.967,122.51,240.03,122.51z M252.87,159.965h-8.15
		c-0.965,0-2.039,1.266-2.039,2.961v5.885h10.188v8.388H242.68v25.189h-9.621v-25.189h-8.721v-8.388h8.721v-4.937
		c0-7.079,4.916-12.836,11.656-12.836h8.152L252.87,159.965L252.87,159.965z"/>
</g>
<g display="none">
	<path display="inline" fill="#606362" d="M57.03,2.01c-29.935,0-54.202,24.266-54.202,54.204s24.268,54.202,54.204,54.202
		s54.202-24.264,54.202-54.202S86.967,2.01,57.03,2.01z M69.87,39.465h-8.15c-0.965,0-2.039,1.266-2.039,2.961v5.885h10.187v8.388
		H59.68v25.189h-9.621V56.699h-8.721v-8.388h8.721v-4.937c0-7.079,4.916-12.836,11.656-12.836h8.152L69.87,39.465L69.87,39.465z"/>
</g>
<g>
	<path fill="#D77A27" d="M272.504-24.053c-29.912,0-54.154,24.247-54.154,54.156s24.243,54.154,54.154,54.154
		c29.908,0,54.156-24.245,54.156-54.154S302.416-24.053,272.504-24.053z M294.529,20.311c0.024,0.458,0.029,0.916,0.029,1.382
		c0,14.093-10.728,30.346-30.346,30.346c-6.023,0-11.629-1.766-16.346-4.794c0.832,0.1,1.679,0.151,2.542,0.151
		c4.998,0,9.596-1.705,13.249-4.568c-4.668-0.083-8.609-3.168-9.967-7.407c0.655,0.124,1.321,0.191,2.008,0.191
		c0.971,0,1.913-0.128,2.81-0.374c-4.878-0.979-8.557-5.287-8.557-10.459c0-0.045,0-0.088,0.002-0.134
		c1.437,0.8,3.083,1.278,4.831,1.335c-2.865-1.915-4.745-5.179-4.745-8.88c0-1.953,0.525-3.783,1.443-5.36
		c5.258,6.453,13.119,10.697,21.981,11.143c-0.183-0.781-0.275-1.597-0.275-2.432c0-5.889,4.776-10.663,10.665-10.663
		c3.069,0,5.84,1.294,7.785,3.368c2.43-0.48,4.713-1.365,6.774-2.59c-0.798,2.491-2.489,4.582-4.69,5.899
		c2.157-0.258,4.214-0.83,6.127-1.679C298.424,16.929,296.615,18.806,294.529,20.311z"/>
</g>
<g>
	<path fill="#606362" d="M272.504-24.053c-29.912,0-54.154,24.247-54.154,54.156s24.243,54.154,54.154,54.154
		c29.908,0,54.156-24.245,54.156-54.154S302.416-24.053,272.504-24.053z M294.529,20.311c0.024,0.458,0.029,0.916,0.029,1.382
		c0,14.093-10.728,30.346-30.346,30.346c-6.023,0-11.629-1.766-16.346-4.794c0.832,0.1,1.679,0.151,2.542,0.151
		c4.998,0,9.596-1.705,13.249-4.568c-4.668-0.083-8.609-3.168-9.967-7.407c0.655,0.124,1.321,0.191,2.008,0.191
		c0.971,0,1.913-0.128,2.81-0.374c-4.878-0.979-8.557-5.287-8.557-10.459c0-0.045,0-0.088,0.002-0.134
		c1.437,0.8,3.083,1.278,4.831,1.335c-2.865-1.915-4.745-5.179-4.745-8.88c0-1.953,0.525-3.783,1.443-5.36
		c5.258,6.453,13.119,10.697,21.981,11.143c-0.183-0.781-0.275-1.597-0.275-2.432c0-5.889,4.776-10.663,10.665-10.663
		c3.069,0,5.84,1.294,7.785,3.368c2.43-0.48,4.713-1.365,6.774-2.59c-0.798,2.491-2.489,4.582-4.69,5.899
		c2.157-0.258,4.214-0.83,6.127-1.679C298.424,16.929,296.615,18.806,294.529,20.311z"/>
</g>
</svg>
