<?xml version="1.0" encoding="utf-8"?>
<!-- Generator: Adobe Illustrator 17.1.0, SVG Export Plug-In . SVG Version: 6.00 Build 0)  -->
<!DOCTYPE svg PUBLIC "-//W3C//DTD SVG 1.1//EN" "http://www.w3.org/Graphics/SVG/1.1/DTD/svg11.dtd">
<svg version="1.1" id="Layer_1" xmlns="http://www.w3.org/2000/svg" xmlns:xlink="http://www.w3.org/1999/xlink" x="0px" y="0px"
	 viewBox="0 0 115 113.5" enable-background="new 0 0 115 113.5" xml:space="preserve">
<g>
	<g>
		<polygon fill="#35A56B" points="464.172,76.445 455.303,70.415 440.129,85.593 488.206,85.593 472.988,70.373 		"/>
		<polygon fill="#35A56B" points="490.906,82.893 490.906,58.04 476.186,68.171 		"/>
		<polygon fill="#35A56B" points="437.426,58.257 437.426,82.893 452.085,68.226 		"/>
		<polygon fill="#35A56B" points="437.426,53.646 464.16,71.815 490.825,53.455 490.906,53.573 490.906,47.389 437.426,47.389 		"/>
		<path fill="#35A56B" d="M464.164,13c-29.542,0-53.49,23.948-53.49,53.49s23.95,53.492,53.492,53.492
			c29.544,0,53.492-23.95,53.492-53.492S493.708,13,464.164,13z M494.726,85.593c0,2.108-1.715,3.819-3.821,3.819h-53.48
			c-2.11,0-3.823-1.711-3.823-3.819V47.389c0-2.108,1.713-3.821,3.823-3.821h53.48c2.106,0,3.821,1.713,3.821,3.821V85.593z"/>
	</g>
</g>
<g>
	<g>
		<polygon fill="#606362" points="464.181,76.457 455.311,70.424 440.133,85.606 488.22,85.606 473,70.383 		"/>
		<polygon fill="#606362" points="490.919,82.907 490.919,58.05 476.198,68.181 		"/>
		<polygon fill="#606362" points="437.432,58.265 437.432,82.907 452.092,68.238 		"/>
		<polygon fill="#606362" points="437.432,53.654 464.17,71.826 490.839,53.463 490.919,53.579 490.919,47.397 437.432,47.397 		"/>
		<path fill="#606362" d="M464.173,13c-29.548,0-53.5,23.952-53.5,53.5s23.954,53.502,53.502,53.502
			c29.55,0,53.502-23.954,53.502-53.502S493.723,13,464.173,13z M494.742,85.606c0,2.108-1.717,3.821-3.821,3.821h-53.49
			c-2.11,0-3.823-1.713-3.823-3.821V47.397c0-2.108,1.715-3.821,3.823-3.821h53.49c2.106,0,3.821,1.715,3.821,3.821V85.606z"/>
	</g>
</g>
<g display="none">
	<path display="inline" fill="#044D78" d="M57.03,2.01c-29.935,0-54.202,24.266-54.202,54.204s24.268,54.202,54.204,54.202
		s54.202-24.264,54.202-54.202C111.233,26.277,86.967,2.01,57.03,2.01z M69.87,39.465h-8.15c-0.965,0-2.039,1.266-2.039,2.961v5.885
		h10.187v8.388H59.68v25.189h-9.621V56.699h-8.721v-8.388h8.721v-4.937c0-7.079,4.916-12.836,11.656-12.836h8.152L69.87,39.465
		L69.87,39.465z"/>
</g>
<g>
	<path fill="#606362" d="M57.03,2.01c-29.935,0-54.202,24.266-54.202,54.204s24.268,54.202,54.204,54.202
		s54.202-24.264,54.202-54.202S86.967,2.01,57.03,2.01z M69.87,39.465h-8.15c-0.965,0-2.039,1.266-2.039,2.961v5.885h10.187v8.388
		H59.68v25.189h-9.621V56.699h-8.721v-8.388h8.721v-4.937c0-7.079,4.916-12.836,11.656-12.836h8.152L69.87,39.465L69.87,39.465z"/>
</g>
<g>
	<path fill="#D77A27" d="M272.504-24.053c-29.912,0-54.154,24.247-54.154,54.156s24.243,54.154,54.154,54.154
		c29.908,0,54.156-24.245,54.156-54.154S302.416-24.053,272.504-24.053z M294.529,20.311c0.024,0.458,0.029,0.916,0.029,1.382
		c0,14.093-10.728,30.346-30.346,30.346c-6.023,0-11.629-1.766-16.346-4.794c0.832,0.1,1.679,0.151,2.542,0.151
		c4.998,0,9.596-1.705,13.249-4.568c-4.668-0.083-8.609-3.168-9.967-7.407c0.655,0.124,1.321,0.191,2.008,0.191
		c0.971,0,1.913-0.128,2.81-0.374c-4.878-0.979-8.557-5.287-8.557-10.459c0-0.045,0-0.088,0.002-0.134
		c1.437,0.8,3.083,1.278,4.831,1.335c-2.865-1.915-4.745-5.179-4.745-8.88c0-1.953,0.525-3.783,1.443-5.36
		c5.258,6.453,13.119,10.697,21.981,11.143c-0.183-0.781-0.275-1.597-0.275-2.432c0-5.889,4.776-10.663,10.665-10.663
		c3.069,0,5.84,1.294,7.785,3.368c2.43-0.48,4.713-1.365,6.774-2.59c-0.798,2.491-2.489,4.582-4.69,5.899
		c2.157-0.258,4.214-0.83,6.127-1.679C298.424,16.929,296.615,18.806,294.529,20.311z"/>
</g>
<g>
	<path fill="#606362" d="M272.504-24.053c-29.912,0-54.154,24.247-54.154,54.156s24.243,54.154,54.154,54.154
		c29.908,0,54.156-24.245,54.156-54.154S302.416-24.053,272.504-24.053z M294.529,20.311c0.024,0.458,0.029,0.916,0.029,1.382
		c0,14.093-10.728,30.346-30.346,30.346c-6.023,0-11.629-1.766-16.346-4.794c0.832,0.1,1.679,0.151,2.542,0.151
		c4.998,0,9.596-1.705,13.249-4.568c-4.668-0.083-8.609-3.168-9.967-7.407c0.655,0.124,1.321,0.191,2.008,0.191
		c0.971,0,1.913-0.128,2.81-0.374c-4.878-0.979-8.557-5.287-8.557-10.459c0-0.045,0-0.088,0.002-0.134
		c1.437,0.8,3.083,1.278,4.831,1.335c-2.865-1.915-4.745-5.179-4.745-8.88c0-1.953,0.525-3.783,1.443-5.36
		c5.258,6.453,13.119,10.697,21.981,11.143c-0.183-0.781-0.275-1.597-0.275-2.432c0-5.889,4.776-10.663,10.665-10.663
		c3.069,0,5.84,1.294,7.785,3.368c2.43-0.48,4.713-1.365,6.774-2.59c-0.798,2.491-2.489,4.582-4.69,5.899
		c2.157-0.258,4.214-0.83,6.127-1.679C298.424,16.929,296.615,18.806,294.529,20.311z"/>
</g>
</svg>
