<svg xmlns="http://www.w3.org/2000/svg" viewBox="0 0 115 113.5" enable-background="new 0 0 115 113.5"><g fill="#35A56B"><path d="M464.172 76.445l-8.869-6.03-15.174 15.178h48.077l-15.218-15.22zM490.906 82.893v-24.853l-14.72 10.131zM437.426 58.257v24.636l14.659-14.667zM437.426 53.646l26.734 18.169 26.665-18.36.081.118v-6.184h-53.48zM464.164 13c-29.542 0-53.49 23.948-53.49 53.49s23.95 53.492 53.492 53.492c29.544 0 53.492-23.95 53.492-53.492s-23.95-53.49-53.494-53.49zm30.562 72.593c0 2.108-1.715 3.819-3.821 3.819h-53.48c-2.11 0-3.823-1.711-3.823-3.819v-38.204c0-2.108 1.713-3.821 3.823-3.821h53.48c2.106 0 3.821 1.713 3.821 3.821v38.204z"/></g><g fill="#606362"><path d="M464.181 76.457l-8.87-6.033-15.178 15.182h48.087l-15.22-15.223zM490.919 82.907v-24.857l-14.721 10.131zM437.432 58.265v24.642l14.66-14.669zM437.432 53.654l26.738 18.172 26.669-18.363.08.116v-6.182h-53.487zM464.173 13c-29.548 0-53.5 23.952-53.5 53.5s23.954 53.502 53.502 53.502c29.55 0 53.502-23.954 53.502-53.502s-23.954-53.5-53.504-53.5zm30.569 72.606c0 2.108-1.717 3.821-3.821 3.821h-53.49c-2.11 0-3.823-1.713-3.823-3.821v-38.209c0-2.108 1.715-3.821 3.823-3.821h53.49c2.106 0 3.821 1.715 3.821 3.821v38.209z"/></g><path fill="#606362" d="M57.03 2.01c-29.935 0-54.202 24.266-54.202 54.204s24.268 54.202 54.204 54.202 54.202-24.264 54.202-54.202-24.267-54.204-54.204-54.204zm12.84 37.455h-8.15c-.965 0-2.039 1.266-2.039 2.961v5.885h10.187v8.388h-10.188v25.189h-9.621v-25.189h-8.721v-8.388h8.721v-4.937c0-7.079 4.916-12.836 11.656-12.836h8.152l.003 8.927z"/><path fill="#D77A27" d="M272.504-24.053c-29.912 0-54.154 24.247-54.154 54.156s24.243 54.154 54.154 54.154c29.908 0 54.156-24.245 54.156-54.154s-24.244-54.156-54.156-54.156zm22.025 44.364c.024.458.029.916.029 1.382 0 14.093-10.728 30.346-30.346 30.346-6.023 0-11.629-1.766-16.346-4.794.832.1 1.679.151 2.542.151 4.998 0 9.596-1.705 13.249-4.568-4.668-.083-8.609-3.168-9.967-7.407.655.124 1.321.191 2.008.191.971 0 1.913-.128 2.81-.374-4.878-.979-8.557-5.287-8.557-10.459l.002-.134c1.437.8 3.083 1.278 4.831 1.335-2.865-1.915-4.745-5.179-4.745-8.88 0-1.953.525-3.783 1.443-5.36 5.258 6.453 13.119 10.697 21.981 11.143-.183-.781-.275-1.597-.275-2.432 0-5.889 4.776-10.663 10.665-10.663 3.069 0 5.84 1.294 7.785 3.368 2.43-.48 4.713-1.365 6.774-2.59-.798 2.491-2.489 4.582-4.69 5.899 2.157-.258 4.214-.83 6.127-1.679-1.425 2.143-3.234 4.02-5.32 5.525z"/><path fill="#606362" d="M272.504-24.053c-29.912 0-54.154 24.247-54.154 54.156s24.243 54.154 54.154 54.154c29.908 0 54.156-24.245 54.156-54.154s-24.244-54.156-54.156-54.156zm22.025 44.364c.024.458.029.916.029 1.382 0 14.093-10.728 30.346-30.346 30.346-6.023 0-11.629-1.766-16.346-4.794.832.1 1.679.151 2.542.151 4.998 0 9.596-1.705 13.249-4.568-4.668-.083-8.609-3.168-9.967-7.407.655.124 1.321.191 2.008.191.971 0 1.913-.128 2.81-.374-4.878-.979-8.557-5.287-8.557-10.459l.002-.134c1.437.8 3.083 1.278 4.831 1.335-2.865-1.915-4.745-5.179-4.745-8.88 0-1.953.525-3.783 1.443-5.36 5.258 6.453 13.119 10.697 21.981 11.143-.183-.781-.275-1.597-.275-2.432 0-5.889 4.776-10.663 10.665-10.663 3.069 0 5.84 1.294 7.785 3.368 2.43-.48 4.713-1.365 6.774-2.59-.798 2.491-2.489 4.582-4.69 5.899 2.157-.258 4.214-.83 6.127-1.679-1.425 2.143-3.234 4.02-5.32 5.525z"/></svg>