<?xml version="1.0" encoding="utf-8"?>
<!-- Generator: Adobe Illustrator 17.1.0, SVG Export Plug-In . SVG Version: 6.00 Build 0)  -->
<!DOCTYPE svg PUBLIC "-//W3C//DTD SVG 1.1//EN" "http://www.w3.org/Graphics/SVG/1.1/DTD/svg11.dtd">
<svg version="1.1" id="Layer_1" xmlns="http://www.w3.org/2000/svg" xmlns:xlink="http://www.w3.org/1999/xlink" x="0px" y="0px"
	 viewBox="0 0 55.132 55.812" enable-background="new 0 0 55.132 55.812" xml:space="preserve">
<g>
	<g>
		<polygon fill="#35A56B" points="104.189,11.807 99.679,8.74 91.962,16.459 116.412,16.459 108.673,8.719 		"/>
		<polygon fill="#35A56B" points="117.785,15.086 117.785,2.447 110.299,7.599 		"/>
		<polygon fill="#35A56B" points="90.587,2.557 90.587,15.086 98.042,7.627 		"/>
		<polygon fill="#35A56B" points="90.587,0.212 104.183,9.452 117.744,0.115 117.785,0.175 117.785,-2.97 90.587,-2.97 		"/>
		<path fill="#35A56B" d="M104.185-20.459c-15.024,0-27.203,12.179-27.203,27.203s12.18,27.204,27.204,27.204
			c15.025,0,27.204-12.18,27.204-27.204S119.21-20.459,104.185-20.459z M119.728,16.459c0,1.072-0.872,1.942-1.943,1.942H90.587
			c-1.073,0-1.944-0.87-1.944-1.942V-2.97c0-1.072,0.871-1.943,1.944-1.943h27.198c1.071,0,1.943,0.871,1.943,1.943V16.459z"/>
	</g>
</g>
<g>
	<g>
		<polygon fill="#606362" points="104.194,11.813 99.683,8.745 91.964,16.466 116.419,16.466 108.679,8.724 		"/>
		<polygon fill="#606362" points="117.792,15.093 117.792,2.452 110.305,7.604 		"/>
		<polygon fill="#606362" points="90.59,2.561 90.59,15.093 98.046,7.633 		"/>
		<polygon fill="#606362" points="90.59,0.216 104.188,9.458 117.751,0.119 117.792,0.178 117.792,-2.966 90.59,-2.966 		"/>
		<path fill="#606362" d="M104.19-20.459c-15.027,0-27.208,12.181-27.208,27.208s12.182,27.209,27.209,27.209
			c15.028,0,27.209-12.182,27.209-27.209S119.218-20.459,104.19-20.459z M119.736,16.466c0,1.072-0.873,1.943-1.943,1.943H90.59
			c-1.073,0-1.944-0.871-1.944-1.943V-2.966c0-1.072,0.872-1.943,1.944-1.943h27.203c1.071,0,1.943,0.872,1.943,1.943V16.466z"/>
	</g>
</g>
<g>
	<path fill="#044D78" d="M104.547,37.247c-15.224,0-27.565,12.341-27.565,27.566s12.342,27.565,27.566,27.565
		s27.565-12.34,27.565-27.565C132.113,49.588,119.772,37.247,104.547,37.247z M111.077,56.295h-4.145
		c-0.491,0-1.037,0.644-1.037,1.506v2.993h5.181v4.266h-5.181v12.81h-4.893V65.06h-4.435v-4.266h4.435v-2.511
		c0-3.6,2.5-6.528,5.928-6.528h4.146L111.077,56.295L111.077,56.295z"/>
</g>
<g>
	<path fill="#606362" d="M110.298,40.341c-15.224,0-27.565,12.341-27.565,27.566s12.342,27.565,27.566,27.565
		s27.565-12.34,27.565-27.565S125.523,40.341,110.298,40.341z M116.828,59.389h-4.145c-0.491,0-1.037,0.644-1.037,1.506v2.993h5.181
		v4.266h-5.181v12.81h-4.893v-12.81h-4.435v-4.266h4.435v-2.511c0-3.6,2.5-6.528,5.928-6.528h4.146L116.828,59.389L116.828,59.389z"
		/>
</g>
<g>
	<path fill="#D77A27" d="M27.565,0.365c-15.212,0-27.541,12.331-27.541,27.542s12.329,27.541,27.541,27.541
		c15.21,0,27.542-12.33,27.542-27.541S42.777,0.365,27.565,0.365z M38.766,22.927c0.012,0.233,0.015,0.466,0.015,0.703
		c0,7.167-5.456,15.433-15.433,15.433c-3.063,0-5.914-0.898-8.313-2.438c0.423,0.051,0.854,0.077,1.293,0.077
		c2.542,0,4.88-0.867,6.738-2.323c-2.374-0.042-4.378-1.611-5.069-3.767c0.333,0.063,0.672,0.097,1.021,0.097
		c0.494,0,0.973-0.065,1.429-0.19c-2.481-0.498-4.352-2.689-4.352-5.319c0-0.023,0-0.045,0.001-0.068
		c0.731,0.407,1.568,0.65,2.457,0.679c-1.457-0.974-2.413-2.634-2.413-4.516c0-0.993,0.267-1.924,0.734-2.726
		c2.674,3.282,6.672,5.44,11.179,5.667c-0.093-0.397-0.14-0.812-0.14-1.237c0-2.995,2.429-5.423,5.424-5.423
		c1.561,0,2.97,0.658,3.959,1.713c1.236-0.244,2.397-0.694,3.445-1.317c-0.406,1.267-1.266,2.33-2.385,3
		c1.097-0.131,2.143-0.422,3.116-0.854C40.747,21.207,39.827,22.162,38.766,22.927z"/>
</g>
<g display="none">
	<path display="inline" fill="#606362" d="M27.565,0.365c-15.212,0-27.541,12.331-27.541,27.542s12.329,27.541,27.541,27.541
		c15.21,0,27.542-12.33,27.542-27.541S42.777,0.365,27.565,0.365z M38.766,22.927c0.012,0.233,0.015,0.466,0.015,0.703
		c0,7.167-5.456,15.433-15.433,15.433c-3.063,0-5.914-0.898-8.313-2.438c0.423,0.051,0.854,0.077,1.293,0.077
		c2.542,0,4.88-0.867,6.738-2.323c-2.374-0.042-4.378-1.611-5.069-3.767c0.333,0.063,0.672,0.097,1.021,0.097
		c0.494,0,0.973-0.065,1.429-0.19c-2.481-0.498-4.352-2.689-4.352-5.319c0-0.023,0-0.045,0.001-0.068
		c0.731,0.407,1.568,0.65,2.457,0.679c-1.457-0.974-2.413-2.634-2.413-4.516c0-0.993,0.267-1.924,0.734-2.726
		c2.674,3.282,6.672,5.44,11.179,5.667c-0.093-0.397-0.14-0.812-0.14-1.237c0-2.995,2.429-5.423,5.424-5.423
		c1.561,0,2.97,0.658,3.959,1.713c1.236-0.244,2.397-0.694,3.445-1.317c-0.406,1.267-1.266,2.33-2.385,3
		c1.097-0.131,2.143-0.422,3.116-0.854C40.747,21.207,39.827,22.162,38.766,22.927z"/>
</g>
</svg>
