<?xml version="1.0" encoding="utf-8"?>
<!-- Generator: Adobe Illustrator 17.1.0, SVG Export Plug-In . SVG Version: 6.00 Build 0)  -->
<!DOCTYPE svg PUBLIC "-//W3C//DTD SVG 1.1//EN" "http://www.w3.org/Graphics/SVG/1.1/DTD/svg11.dtd">
<svg version="1.1" id="Layer_1" xmlns="http://www.w3.org/2000/svg" xmlns:xlink="http://www.w3.org/1999/xlink" x="0px" y="0px"
	 viewBox="0 290 400 416" style="enable-background:new 0 290 400 416;" xml:space="preserve">
<style type="text/css">
	.st0{fill:#2A3184;}
	.st1{fill:#FFFFFF;}
	.st2{enable-background:new    ;}
	.st3{fill:#231F20;}
</style>
<g>
	<rect x="181.5" y="292.6" class="st0" width="40.1" height="19"/>
	<circle class="st0" cx="201.3" cy="504.6" r="196.7"/>
	<circle class="st1" cx="201.3" cy="504.6" r="185.5"/>
</g>
<g class="st2">
	<path class="st3" d="M81.3,444.1l-16.1,45.9h-1.3l-21.9-66.2h1.5l21.1,63.8l15.8-44.6h2.1l15.8,44.6l21.2-63.8h1.5l-21.9,66.2h-1.3
		L81.3,444.1z"/>
	<path class="st3" d="M158.6,467.2h-33.2l-8.9,22h-1.6l26.4-66.6h1.6l26.4,66.6h-1.6L158.6,467.2z M126,465.8h32l-16-41.2L126,465.8
		z"/>
	<path class="st3" d="M183.3,489.3v-64.1h-22.7v-1.5h46.8v1.5h-22.7v64.1H183.3z"/>
	<path class="st3" d="M264.3,443.7c-1.5-3.5-3.7-6.6-6.2-9.2c-5.5-5.7-13.2-9.2-21.7-9.2c-8.4,0-16.1,3.5-21.7,9.2
		c-5.5,5.7-9,13.5-9,22c0,8.6,3.5,16.4,9,22c5.5,5.7,13.2,9.3,21.7,9.3c8.4,0,16.1-3.6,21.7-9.3c2.5-2.6,4.7-5.6,6.2-9.1h1.6
		c-1.6,3.8-3.9,7.3-6.8,10.2c-5.8,6-13.8,9.7-22.7,9.7c-8.9,0-16.9-3.7-22.7-9.7c-5.7-5.9-9.4-14.1-9.4-23.2c0-9,3.7-17.2,9.4-23.1
		c5.8-6,13.8-9.7,22.7-9.7c8.9,0,16.9,3.7,22.7,9.7c2.8,2.9,5.2,6.4,6.8,10.2H264.3z"/>
	<path class="st3" d="M274.4,455.3h41.2v-31.6h1.5v65.6h-1.5v-32.5h-41.2v32.5H273v-65.6h1.4V455.3z"/>
</g>
<g class="st2">
	<path class="st3" d="M63.1,537h41.2v-31.6h1.5V571h-1.5v-32.5H63.1V571h-1.4v-65.6h1.4V537z"/>
	<path class="st3" d="M116,569.6h34.9v1.4h-36.2h-0.2v-65.6h36.2v1.4H116v30.6h33.9v1.5H116V569.6z"/>
	<path class="st3" d="M196.4,549h-33.2l-8.9,22h-1.6l26.4-66.6h1.6L207,571h-1.6L196.4,549z M163.8,547.5h32l-16-41.2L163.8,547.5z"
		/>
	<path class="st3" d="M252,505.4h1.6L227.2,572h-1.6l-26.4-66.6h1.6l25.5,64.7L252,505.4z"/>
	<path class="st3" d="M260,569.6h34.9v1.4h-36.2h-0.2v-65.6h36.2v1.4H260v30.6h33.9v1.5H260V569.6z"/>
	<path class="st3" d="M301.7,571v-65.7l1.3,0.1l43.6,63v-63h1.4V571h-1.5l-43.3-62.6V571H301.7z"/>
</g>
<polygon class="st1" points="203.7,671 189.4,671 189.4,497.4 187,494.9 189.4,492.5 189.4,488.9 193,488.9 306.2,375.3 
	316.3,385.4 205.5,496.6 209.8,501.1 203.6,501.1 "/>
<polygon class="st0" points="197.5,495.9 197.5,664.9 195.5,664.9 195.5,495 195.5,495 195.5,495 306.2,383.9 307.6,385.4 "/>
</svg>
