<?xml version="1.0" encoding="utf-8"?>
<!-- Generator: Adobe Illustrator 17.1.0, SVG Export Plug-In . SVG Version: 6.00 Build 0)  -->
<!DOCTYPE svg PUBLIC "-//W3C//DTD SVG 1.1//EN" "http://www.w3.org/Graphics/SVG/1.1/DTD/svg11.dtd">
<svg version="1.1" id="Layer_1" xmlns="http://www.w3.org/2000/svg" xmlns:xlink="http://www.w3.org/1999/xlink" x="0px" y="0px"
	 viewBox="0 0 196.25 204" enable-background="new 0 0 196.25 204" xml:space="preserve">
<g>
	<rect x="89.046" y="0.25" fill="#2A3184" width="19.667" height="9.333"/>
	<circle fill="#2A3184" cx="98.75" cy="104.25" r="96.5"/>
	<circle fill="#FFFFFF" cx="98.75" cy="104.25" r="91"/>
</g>
<text transform="matrix(1 0 0 1 20.3778 96.7323)"><tspan x="0" y="0" fill="#231F20" font-family="'Code-Light'" font-size="46.0131">Watch </tspan><tspan x="7.729" y="40.097" fill="#231F20" font-family="'Code-Light'" font-size="46.0131">Heaven</tspan></text>
<polygon fill="#FFFFFF" points="99.92,185.92 92.92,185.92 92.91,100.728 91.753,99.511 92.91,98.339 92.91,96.56 94.674,96.56 
	150.226,40.813 155.179,45.766 100.81,100.327 102.924,102.55 99.911,102.554 "/>
<polygon fill="#2A3184" points="96.91,99.99 96.92,182.92 95.92,182.92 95.91,99.56 95.94,99.56 95.93,99.55 150.23,45.06 
	150.94,45.77 "/>
</svg>
